<?xml version="1.0" encoding="UTF-8" standalone="no"?>
<!-- Created with Inkscape (http://www.inkscape.org/) -->

<svg
   width="210mm"
   height="297mm"
   viewBox="0 0 210 297"
   version="1.1"
   id="svg5"
   inkscape:version="1.4 (86a8ad7, 2024-10-11)"
   sodipodi:docname="dispositions.svg"
   xml:space="preserve"
   xmlns:inkscape="http://www.inkscape.org/namespaces/inkscape"
   xmlns:sodipodi="http://sodipodi.sourceforge.net/DTD/sodipodi-0.dtd"
   xmlns:xlink="http://www.w3.org/1999/xlink"
   xmlns="http://www.w3.org/2000/svg"
   xmlns:svg="http://www.w3.org/2000/svg"><sodipodi:namedview
     id="namedview7"
     pagecolor="#ffffff"
     bordercolor="#000000"
     borderopacity="0.25"
     inkscape:showpageshadow="2"
     inkscape:pageopacity="0.0"
     inkscape:pagecheckerboard="0"
     inkscape:deskcolor="#d1d1d1"
     inkscape:document-units="mm"
     showgrid="false"
     inkscape:zoom="1.1928584"
     inkscape:cx="524.37069"
     inkscape:cy="401.97561"
     inkscape:window-width="1904"
     inkscape:window-height="993"
     inkscape:window-x="0"
     inkscape:window-y="0"
     inkscape:window-maximized="0"
     inkscape:current-layer="layer1" /><defs
     id="defs2"><rect
       x="-241.31753"
       y="184.14125"
       width="89.968556"
       height="105.10345"
       id="rect4041" /><rect
       x="-241.31753"
       y="184.14125"
       width="89.968556"
       height="105.10345"
       id="rect4073" /><rect
       x="-241.31753"
       y="184.14125"
       width="89.968556"
       height="105.10345"
       id="rect4079" /><rect
       x="-241.31753"
       y="184.14125"
       width="89.968556"
       height="105.10345"
       id="rect4085" /><rect
       x="-241.31753"
       y="184.14125"
       width="89.968556"
       height="105.10345"
       id="rect4091" /><rect
       x="-241.31753"
       y="184.14125"
       width="89.968556"
       height="105.10345"
       id="rect4097" /><rect
       x="-241.31753"
       y="184.14125"
       width="89.968556"
       height="105.10345"
       id="rect4103" /><rect
       x="-241.31753"
       y="184.14125"
       width="89.968556"
       height="105.10345"
       id="rect4109" /><rect
       x="-241.31753"
       y="184.14125"
       width="89.968556"
       height="105.10345"
       id="rect4115" /><rect
       x="-241.31753"
       y="184.14125"
       width="89.968556"
       height="105.10345"
       id="rect4121" /><rect
       x="-241.31753"
       y="184.14125"
       width="89.968556"
       height="105.10345"
       id="rect4127" /><rect
       x="-241.31753"
       y="184.14125"
       width="89.968556"
       height="105.10345"
       id="rect4133" /><rect
       x="-241.31753"
       y="184.14125"
       width="89.968556"
       height="105.10345"
       id="rect4139" /><rect
       x="-241.31753"
       y="184.14125"
       width="89.968556"
       height="105.10345"
       id="rect4145" /><rect
       x="-241.31753"
       y="184.14125"
       width="89.968556"
       height="105.10345"
       id="rect4151" /><rect
       x="-241.31753"
       y="184.14125"
       width="89.968556"
       height="105.10345"
       id="rect507" /><rect
       x="-241.31753"
       y="184.14125"
       width="89.968556"
       height="105.10345"
       id="rect509" /><rect
       x="-241.31753"
       y="184.14125"
       width="89.968556"
       height="105.10345"
       id="rect511" /><rect
       x="-241.31753"
       y="184.14125"
       width="89.968556"
       height="105.10345"
       id="rect513" /><rect
       x="-241.31753"
       y="184.14125"
       width="89.968556"
       height="105.10345"
       id="rect646" /><rect
       x="-241.31753"
       y="184.14125"
       width="89.968556"
       height="105.10345"
       id="rect1268" /><rect
       x="-241.31753"
       y="184.14125"
       width="89.968556"
       height="105.10345"
       id="rect1074" /></defs><g
     inkscape:label="base"
     inkscape:groupmode="layer"
     id="g1072"
     style="display:inline"><rect
       style="fill:#decd87;stroke:#000000;stroke-width:0.111;paint-order:stroke fill markers;stop-color:#000000"
       id="rect946"
       width="30"
       height="30"
       x="-84.246513"
       y="10.011105"
       ry="1.6685174"
       transform="scale(-1,1)"
       inkscape:export-filename="disposition-02v.png"
       inkscape:export-xdpi="96"
       inkscape:export-ydpi="96" /><rect
       style="fill:#decd87;stroke:#000000;stroke-width:0.111;paint-order:stroke fill markers;stop-color:#000000"
       id="rect980"
       width="30"
       height="30"
       x="12.087615"
       y="10.011105"
       ry="1.6685174"
       inkscape:export-filename="disposition-01.png"
       inkscape:export-xdpi="96"
       inkscape:export-ydpi="96" /><rect
       style="fill:#decd87;stroke:#000000;stroke-width:0.111;paint-order:stroke fill markers;stop-color:#000000"
       id="rect383"
       width="30"
       height="30"
       x="-166.36198"
       y="10.011105"
       ry="1.6685174"
       transform="scale(-1,1)"
       inkscape:export-filename="disposition-01.png"
       inkscape:export-xdpi="96"
       inkscape:export-ydpi="96" /><rect
       style="fill:#decd87;stroke:#000000;stroke-width:0.111;paint-order:stroke fill markers;stop-color:#000000"
       id="rect385"
       width="30"
       height="30"
       x="94.203079"
       y="10.011105"
       ry="1.6685174"
       inkscape:export-filename="disposition-02h.png"
       inkscape:export-xdpi="96"
       inkscape:export-ydpi="96" /><rect
       style="fill:#decd87;stroke:#000000;stroke-width:0.111;paint-order:stroke fill markers;stop-color:#000000"
       id="rect3"
       width="30"
       height="30"
       x="-84.246513"
       y="52.544651"
       ry="1.6685174"
       transform="scale(-1,1)"
       inkscape:export-filename="disposition-02v.png"
       inkscape:export-xdpi="96"
       inkscape:export-ydpi="96" /><rect
       style="fill:#decd87;stroke:#000000;stroke-width:0.111;paint-order:stroke fill markers;stop-color:#000000"
       id="rect4"
       width="30"
       height="30"
       x="12.087615"
       y="52.544651"
       ry="1.6685174"
       inkscape:export-filename="disposition-01.png"
       inkscape:export-xdpi="96"
       inkscape:export-ydpi="96" /><rect
       style="fill:#decd87;stroke:#000000;stroke-width:0.111;paint-order:stroke fill markers;stop-color:#000000"
       id="rect5"
       width="30"
       height="30"
       x="-166.36198"
       y="52.544651"
       ry="1.6685174"
       transform="scale(-1,1)"
       inkscape:export-filename="disposition-01.png"
       inkscape:export-xdpi="96"
       inkscape:export-ydpi="96" /><rect
       style="fill:#decd87;stroke:#000000;stroke-width:0.111;paint-order:stroke fill markers;stop-color:#000000"
       id="rect6"
       width="30"
       height="30"
       x="94.203079"
       y="52.544651"
       ry="1.6685174"
       inkscape:export-filename="disposition-02h.png"
       inkscape:export-xdpi="96"
       inkscape:export-ydpi="96" /></g><g
     inkscape:label="Calque 1"
     inkscape:groupmode="layer"
     id="layer1"
     style="display:inline"><g
       id="g12"
       transform="translate(10.633387,32.8384)"><rect
         style="fill:#2568ef;fill-opacity:1;stroke:none;stroke-width:0.264583;stroke-linecap:square;stroke-linejoin:round;paint-order:fill markers stroke"
         id="rect9"
         width="45.958878"
         height="45.958874"
         x="5.9558115"
         y="75.576706"
         ry="5.8464894" /><path
         id="rect10"
         style="fill:#bde321;fill-opacity:1;stroke-width:0.264583;stroke-linecap:square;stroke-linejoin:round;paint-order:fill markers stroke"
         d="m 19.873098,94.962453 c 11.514074,12.560417 9.085737,17.256557 19.706814,3.16501 3.429297,-4.54984 9.802762,8.067187 12.334777,11.622637 v 5.93899 c 0,3.23895 -2.607534,5.84649 -5.846489,5.84649 H 11.802301 c -3.2389552,0 -5.8464895,-2.60754 -5.8464895,-5.84649 v -8.1545 C 9.4373317,102.08013 16.15512,90.906593 19.873098,94.962453 Z"
         sodipodi:nodetypes="sscsssscs" /><circle
         style="fill:#fecd1a;fill-opacity:1;stroke:none;stroke-width:0.264583;stroke-linecap:square;stroke-linejoin:round;paint-order:fill markers stroke"
         id="path10"
         cx="37.38678"
         cy="85.146118"
         r="4.4705887" /></g><image
       width="46.223461"
       height="46.223457"
       preserveAspectRatio="none"
       xlink:href="../../../../assets/images/paysage-01.png"
       id="image10"
       x="6.7168469"
       y="188.28128"
       style="stroke-width:1.92708" /><g
       id="g13"
       transform="translate(10.633387,32.8384)"><rect
         style="fill:#ac9d93;fill-opacity:1;stroke:none;stroke-width:0.264583;stroke-linecap:square;stroke-linejoin:round;paint-order:fill markers stroke"
         id="rect11"
         width="45.958878"
         height="45.958874"
         x="59.396355"
         y="75.576706"
         ry="5.8464894" /><path
         id="path11"
         style="fill:#44aa00;fill-opacity:1;stroke-width:0.264583;stroke-linecap:square;stroke-linejoin:round;paint-order:fill markers stroke"
         d="m 73.313641,94.962453 c 11.514074,12.560417 9.085737,17.256557 19.706814,3.16501 3.429297,-4.54984 9.802765,8.067187 12.334775,11.622637 v 5.93899 c 0,3.23895 -2.60753,5.84649 -5.846487,5.84649 H 65.242844 c -3.238955,0 -5.846489,-2.60754 -5.846489,-5.84649 v -8.1545 c 3.48152,-5.45446 10.199308,-16.627997 13.917286,-12.572137 z"
         sodipodi:nodetypes="sscsssscs" /><circle
         style="fill:#ffff00;fill-opacity:1;stroke:none;stroke-width:0.264583;stroke-linecap:square;stroke-linejoin:round;paint-order:fill markers stroke"
         id="circle11"
         cx="74.426987"
         cy="84.476715"
         r="4.4705887" /><circle
         style="fill:#ac9d93;fill-opacity:1;stroke:none;stroke-width:0.264583;stroke-linecap:square;stroke-linejoin:round;paint-order:fill markers stroke"
         id="circle12"
         cx="76.957619"
         cy="85.60347"
         r="4.4705887" /></g><g
       id="g14"
       transform="translate(10.633387,32.8384)"><rect
         style="fill:#2568ef;fill-opacity:1;stroke:none;stroke-width:0.264583;stroke-linecap:square;stroke-linejoin:round;paint-order:fill markers stroke"
         id="rect14"
         width="45.958878"
         height="45.958874"
         x="5.9558115"
         y="75.576706"
         ry="5.8464894" /><path
         id="path14"
         style="fill:#bde321;fill-opacity:1;stroke-width:0.264583;stroke-linecap:square;stroke-linejoin:round;paint-order:fill markers stroke"
         d="m 19.873098,94.962453 c 11.514074,12.560417 9.085737,17.256557 19.706814,3.16501 3.429297,-4.54984 9.802762,8.067187 12.334777,11.622637 v 5.93899 c 0,3.23895 -2.607534,5.84649 -5.846489,5.84649 H 11.802301 c -3.2389552,0 -5.8464895,-2.60754 -5.8464895,-5.84649 v -8.1545 C 9.4373317,102.08013 16.15512,90.906593 19.873098,94.962453 Z"
         sodipodi:nodetypes="sscsssscs" /><circle
         style="fill:#fecd1a;fill-opacity:1;stroke:none;stroke-width:0.264583;stroke-linecap:square;stroke-linejoin:round;paint-order:fill markers stroke"
         id="circle14"
         cx="37.38678"
         cy="85.146118"
         r="4.4705887" /></g><g
       id="g15"
       transform="matrix(0.29799098,0,0,0.48282361,93.372156,-24.276784)"
       style="stroke-width:2.63636"><rect
         style="fill:#2568ef;fill-opacity:1;stroke:none;stroke-width:0.697535;stroke-linecap:square;stroke-linejoin:round;paint-order:fill markers stroke"
         id="rect15"
         width="45.958878"
         height="45.958874"
         x="5.9558115"
         y="75.576706"
         ry="5.8464894" /><path
         id="path15"
         style="fill:#bde321;fill-opacity:1;stroke-width:0.697535;stroke-linecap:square;stroke-linejoin:round;paint-order:fill markers stroke"
         d="m 19.873098,94.962453 c 11.514074,12.560417 9.085737,17.256557 19.706814,3.16501 3.429297,-4.54984 9.802762,8.067187 12.334777,11.622637 v 5.93899 c 0,3.23895 -2.607534,5.84649 -5.846489,5.84649 H 11.802301 c -3.2389552,0 -5.8464895,-2.60754 -5.8464895,-5.84649 v -8.1545 C 9.4373317,102.08013 16.15512,90.906593 19.873098,94.962453 Z"
         sodipodi:nodetypes="sscsssscs" /><circle
         style="fill:#fecd1a;fill-opacity:1;stroke:none;stroke-width:0.697535;stroke-linecap:square;stroke-linejoin:round;paint-order:fill markers stroke"
         id="circle15"
         cx="37.38678"
         cy="85.146118"
         r="4.4705887" /></g><g
       id="g16"
       transform="matrix(0.55812589,0,0,0.28772244,53.282063,-10.475536)"
       style="stroke-width:2.49544"><rect
         style="fill:#2568ef;fill-opacity:1;stroke:none;stroke-width:0.660251;stroke-linecap:square;stroke-linejoin:round;paint-order:fill markers stroke"
         id="rect16"
         width="45.958878"
         height="45.958874"
         x="5.9558115"
         y="75.576706"
         ry="5.8464894" /><path
         id="path16"
         style="fill:#bde321;fill-opacity:1;stroke-width:0.660251;stroke-linecap:square;stroke-linejoin:round;paint-order:fill markers stroke"
         d="m 19.873098,94.962453 c 11.514074,12.560417 9.085737,17.256557 19.706814,3.16501 3.429297,-4.54984 9.802762,8.067187 12.334777,11.622637 v 5.93899 c 0,3.23895 -2.607534,5.84649 -5.846489,5.84649 H 11.802301 c -3.2389552,0 -5.8464895,-2.60754 -5.8464895,-5.84649 v -8.1545 C 9.4373317,102.08013 16.15512,90.906593 19.873098,94.962453 Z"
         sodipodi:nodetypes="sscsssscs" /><circle
         style="fill:#fecd1a;fill-opacity:1;stroke:none;stroke-width:0.660251;stroke-linecap:square;stroke-linejoin:round;paint-order:fill markers stroke"
         id="circle16"
         cx="37.38678"
         cy="85.146118"
         r="4.4705887" /></g><g
       id="g17"
       transform="matrix(0.55812589,0,0,0.55812584,10.965853,-29.967879)"
       style="stroke-width:1.79171"><rect
         style="fill:#2568ef;fill-opacity:1;stroke:none;stroke-width:0.474056;stroke-linecap:square;stroke-linejoin:round;paint-order:fill markers stroke"
         id="rect17"
         width="45.958878"
         height="45.958874"
         x="5.9558115"
         y="75.576706"
         ry="5.8464894" /><path
         id="path17"
         style="fill:#bde321;fill-opacity:1;stroke-width:0.474056;stroke-linecap:square;stroke-linejoin:round;paint-order:fill markers stroke"
         d="m 19.873098,94.962453 c 11.514074,12.560417 9.085737,17.256557 19.706814,3.16501 3.429297,-4.54984 9.802762,8.067187 12.334777,11.622637 v 5.93899 c 0,3.23895 -2.607534,5.84649 -5.846489,5.84649 H 11.802301 c -3.2389552,0 -5.8464895,-2.60754 -5.8464895,-5.84649 v -8.1545 C 9.4373317,102.08013 16.15512,90.906593 19.873098,94.962453 Z"
         sodipodi:nodetypes="sscsssscs" /><circle
         style="fill:#fecd1a;fill-opacity:1;stroke:none;stroke-width:0.474056;stroke-linecap:square;stroke-linejoin:round;paint-order:fill markers stroke"
         id="circle17"
         cx="37.38678"
         cy="85.146118"
         r="4.4705887" /></g><g
       id="g19"
       transform="translate(10.633387,32.8384)"><rect
         style="fill:#ac9d93;fill-opacity:1;stroke:none;stroke-width:0.264583;stroke-linecap:square;stroke-linejoin:round;paint-order:fill markers stroke"
         id="rect18"
         width="45.958878"
         height="45.958874"
         x="59.396355"
         y="75.576706"
         ry="5.8464894" /><path
         id="path18"
         style="fill:#44aa00;fill-opacity:1;stroke-width:0.264583;stroke-linecap:square;stroke-linejoin:round;paint-order:fill markers stroke"
         d="m 73.313641,94.962453 c 11.514074,12.560417 9.085737,17.256557 19.706814,3.16501 3.429297,-4.54984 9.802765,8.067187 12.334775,11.622637 v 5.93899 c 0,3.23895 -2.60753,5.84649 -5.846487,5.84649 H 65.242844 c -3.238955,0 -5.846489,-2.60754 -5.846489,-5.84649 v -8.1545 c 3.48152,-5.45446 10.199308,-16.627997 13.917286,-12.572137 z"
         sodipodi:nodetypes="sscsssscs" /><circle
         style="fill:#ffff00;fill-opacity:1;stroke:none;stroke-width:0.264583;stroke-linecap:square;stroke-linejoin:round;paint-order:fill markers stroke"
         id="circle18"
         cx="74.426987"
         cy="84.476715"
         r="4.4705887" /><circle
         style="fill:#ac9d93;fill-opacity:1;stroke:none;stroke-width:0.264583;stroke-linecap:square;stroke-linejoin:round;paint-order:fill markers stroke"
         id="circle19"
         cx="76.957619"
         cy="85.60347"
         r="4.4705887" /></g><g
       id="g21"
       transform="translate(10.633387,32.8384)"><rect
         style="fill:#ac9d93;fill-opacity:1;stroke:none;stroke-width:0.264583;stroke-linecap:square;stroke-linejoin:round;paint-order:fill markers stroke"
         id="rect19"
         width="45.958878"
         height="45.958874"
         x="59.396355"
         y="75.576706"
         ry="5.8464894" /><path
         id="path19"
         style="fill:#44aa00;fill-opacity:1;stroke-width:0.264583;stroke-linecap:square;stroke-linejoin:round;paint-order:fill markers stroke"
         d="m 73.313641,94.962453 c 11.514074,12.560417 9.085737,17.256557 19.706814,3.16501 3.429297,-4.54984 9.802765,8.067187 12.334775,11.622637 v 5.93899 c 0,3.23895 -2.60753,5.84649 -5.846487,5.84649 H 65.242844 c -3.238955,0 -5.846489,-2.60754 -5.846489,-5.84649 v -8.1545 c 3.48152,-5.45446 10.199308,-16.627997 13.917286,-12.572137 z"
         sodipodi:nodetypes="sscsssscs" /><circle
         style="fill:#ffff00;fill-opacity:1;stroke:none;stroke-width:0.264583;stroke-linecap:square;stroke-linejoin:round;paint-order:fill markers stroke"
         id="circle20"
         cx="74.426987"
         cy="84.476715"
         r="4.4705887" /><circle
         style="fill:#ac9d93;fill-opacity:1;stroke:none;stroke-width:0.264583;stroke-linecap:square;stroke-linejoin:round;paint-order:fill markers stroke"
         id="circle21"
         cx="76.957619"
         cy="85.60347"
         r="4.4705887" /></g><g
       id="g23"
       transform="matrix(0.29799098,0,0,0.48282361,92.077125,-24.276784)"
       style="stroke-width:2.63636"><rect
         style="fill:#ac9d93;fill-opacity:1;stroke:none;stroke-width:0.697535;stroke-linecap:square;stroke-linejoin:round;paint-order:fill markers stroke"
         id="rect21"
         width="45.958878"
         height="45.958874"
         x="59.396355"
         y="75.576706"
         ry="5.8464894" /><path
         id="path21"
         style="fill:#44aa00;fill-opacity:1;stroke-width:0.697535;stroke-linecap:square;stroke-linejoin:round;paint-order:fill markers stroke"
         d="m 73.313641,94.962453 c 11.514074,12.560417 9.085737,17.256557 19.706814,3.16501 3.429297,-4.54984 9.802765,8.067187 12.334775,11.622637 v 5.93899 c 0,3.23895 -2.60753,5.84649 -5.846487,5.84649 H 65.242844 c -3.238955,0 -5.846489,-2.60754 -5.846489,-5.84649 v -8.1545 c 3.48152,-5.45446 10.199308,-16.627997 13.917286,-12.572137 z"
         sodipodi:nodetypes="sscsssscs" /><circle
         style="fill:#ffff00;fill-opacity:1;stroke:none;stroke-width:0.697535;stroke-linecap:square;stroke-linejoin:round;paint-order:fill markers stroke"
         id="circle22"
         cx="74.426987"
         cy="84.476715"
         r="4.4705887" /><circle
         style="fill:#ac9d93;fill-opacity:1;stroke:none;stroke-width:0.697535;stroke-linecap:square;stroke-linejoin:round;paint-order:fill markers stroke"
         id="circle23"
         cx="76.957619"
         cy="85.60347"
         r="4.4705887" /></g><g
       id="g25"
       transform="matrix(0.55812588,0,0,0.28772244,23.455513,3.8396115)"
       style="stroke-width:2.49544"><rect
         style="fill:#ac9d93;fill-opacity:1;stroke:none;stroke-width:0.660251;stroke-linecap:square;stroke-linejoin:round;paint-order:fill markers stroke"
         id="rect23"
         width="45.958878"
         height="45.958874"
         x="59.396355"
         y="75.576706"
         ry="5.8464894" /><path
         id="path23"
         style="fill:#44aa00;fill-opacity:1;stroke-width:0.660251;stroke-linecap:square;stroke-linejoin:round;paint-order:fill markers stroke"
         d="m 73.313641,94.962453 c 11.514074,12.560417 9.085737,17.256557 19.706814,3.16501 3.429297,-4.54984 9.802765,8.067187 12.334775,11.622637 v 5.93899 c 0,3.23895 -2.60753,5.84649 -5.846487,5.84649 H 65.242844 c -3.238955,0 -5.846489,-2.60754 -5.846489,-5.84649 v -8.1545 c 3.48152,-5.45446 10.199308,-16.627997 13.917286,-12.572137 z"
         sodipodi:nodetypes="sscsssscs" /><circle
         style="fill:#ffff00;fill-opacity:1;stroke:none;stroke-width:0.660251;stroke-linecap:square;stroke-linejoin:round;paint-order:fill markers stroke"
         id="circle24"
         cx="74.426987"
         cy="84.476715"
         r="4.4705887" /><circle
         style="fill:#ac9d93;fill-opacity:1;stroke:none;stroke-width:0.660251;stroke-linecap:square;stroke-linejoin:round;paint-order:fill markers stroke"
         id="circle25"
         cx="76.957619"
         cy="85.60347"
         r="4.4705887" /></g><g
       id="g1"
       transform="translate(124.47318,32.8384)"><rect
         style="fill:#2568ef;fill-opacity:1;stroke:none;stroke-width:0.264583;stroke-linecap:square;stroke-linejoin:round;paint-order:fill markers stroke"
         id="rect1"
         width="45.958878"
         height="45.958874"
         x="5.9558115"
         y="75.576706"
         ry="5.8464894" /><path
         id="path1"
         style="fill:#bde321;fill-opacity:1;stroke-width:0.264583;stroke-linecap:square;stroke-linejoin:round;paint-order:fill markers stroke"
         d="m 19.873098,94.962453 c 11.514074,12.560417 9.085737,17.256557 19.706814,3.16501 3.429297,-4.54984 9.802762,8.067187 12.334777,11.622637 v 5.93899 c 0,3.23895 -2.607534,5.84649 -5.846489,5.84649 H 11.802301 c -3.2389552,0 -5.8464895,-2.60754 -5.8464895,-5.84649 v -8.1545 C 9.4373317,102.08013 16.15512,90.906593 19.873098,94.962453 Z"
         sodipodi:nodetypes="sscsssscs" /><circle
         style="fill:#fecd1a;fill-opacity:1;stroke:none;stroke-width:0.264583;stroke-linecap:square;stroke-linejoin:round;paint-order:fill markers stroke"
         id="circle1"
         cx="37.38678"
         cy="85.146118"
         r="4.4705887" /></g><rect
       style="fill:#2568ef;fill-opacity:1;stroke:none;stroke-width:0.264583;stroke-linecap:square;stroke-linejoin:round;paint-order:fill markers stroke"
       id="rect2"
       width="45.958878"
       height="45.958874"
       x="130.42899"
       y="108.41511"
       ry="5.8464894" /><path
       id="path2"
       style="fill:#bde321;fill-opacity:1;stroke-width:0.264583;stroke-linecap:square;stroke-linejoin:round;paint-order:fill markers stroke"
       d="m 144.34628,140.21789 c 11.51407,6.69121 9.08573,9.19295 19.70681,1.68607 3.4293,-2.4238 9.80276,4.29757 12.33478,6.19163 v 3.16384 c 0,1.72546 -2.60754,3.11455 -5.84649,3.11455 h -34.2659 c -3.23895,0 -5.84649,-1.38909 -5.84649,-3.11455 v -4.34409 c 3.48152,-2.90571 10.19931,-8.8581 13.91729,-6.69745 z"
       sodipodi:nodetypes="sscsssscs" /><circle
       style="fill:#fecd1a;fill-opacity:1;stroke:none;stroke-width:0.264583;stroke-linecap:square;stroke-linejoin:round;paint-order:fill markers stroke"
       id="circle2"
       cx="161.85995"
       cy="117.98452"
       r="4.4705887" /><g
       id="g7"
       transform="matrix(0.29799098,0,0,0.48282361,94.78794,52.235577)"
       style="stroke-width:2.63636"><rect
         style="fill:#2568ef;fill-opacity:1;stroke:none;stroke-width:0.697535;stroke-linecap:square;stroke-linejoin:round;paint-order:fill markers stroke"
         id="rect7"
         width="45.958878"
         height="45.958874"
         x="5.9558115"
         y="75.576706"
         ry="5.8464894" /><path
         id="path7"
         style="fill:#bde321;fill-opacity:1;stroke-width:0.697535;stroke-linecap:square;stroke-linejoin:round;paint-order:fill markers stroke"
         d="m 19.873098,94.962453 c 11.514074,12.560417 9.085737,17.256557 19.706814,3.16501 3.429297,-4.54984 9.802762,8.067187 12.334777,11.622637 v 5.93899 c 0,3.23895 -2.607534,5.84649 -5.846489,5.84649 H 11.802301 c -3.2389552,0 -5.8464895,-2.60754 -5.8464895,-5.84649 v -8.1545 C 9.4373317,102.08013 16.15512,90.906593 19.873098,94.962453 Z"
         sodipodi:nodetypes="sscsssscs" /><circle
         style="fill:#fecd1a;fill-opacity:1;stroke:none;stroke-width:0.697535;stroke-linecap:square;stroke-linejoin:round;paint-order:fill markers stroke"
         id="circle7"
         cx="37.38678"
         cy="85.146118"
         r="4.4705887" /></g><g
       id="g8"
       transform="matrix(0.55812589,0,0,0.16450063,53.124754,41.370709)"
       style="stroke-width:3.30028"><rect
         style="fill:#2568ef;fill-opacity:1;stroke:none;stroke-width:0.873197;stroke-linecap:square;stroke-linejoin:round;paint-order:fill markers stroke"
         id="rect8"
         width="45.958878"
         height="45.958874"
         x="5.9558115"
         y="75.576706"
         ry="5.8464894" /><path
         id="path8"
         style="fill:#bde321;fill-opacity:1;stroke-width:0.873197;stroke-linecap:square;stroke-linejoin:round;paint-order:fill markers stroke"
         d="m 19.873098,94.962453 c 11.514074,12.560417 9.085737,17.256557 19.706814,3.16501 3.429297,-4.54984 9.802762,8.067187 12.334777,11.622637 v 5.93899 c 0,3.23895 -2.607534,5.84649 -5.846489,5.84649 H 11.802301 c -3.2389552,0 -5.8464895,-2.60754 -5.8464895,-5.84649 v -8.1545 C 9.4373317,102.08013 16.15512,90.906593 19.873098,94.962453 Z"
         sodipodi:nodetypes="sscsssscs" /><circle
         style="fill:#fecd1a;fill-opacity:1;stroke:none;stroke-width:0.873197;stroke-linecap:square;stroke-linejoin:round;paint-order:fill markers stroke"
         id="circle8"
         cx="37.38678"
         cy="85.146118"
         r="4.4705887" /></g><g
       id="g18"
       transform="matrix(0.20410691,0,0,0.19383841,12.445087,39.940003)"
       style="stroke-width:5.02749"><rect
         style="fill:#2568ef;fill-opacity:1;stroke:none;stroke-width:1.33018;stroke-linecap:square;stroke-linejoin:round;paint-order:fill markers stroke"
         id="rect12"
         width="45.958878"
         height="45.958874"
         x="5.9558115"
         y="75.576706"
         ry="5.8464894" /><path
         id="path12"
         style="fill:#bde321;fill-opacity:1;stroke-width:1.33018;stroke-linecap:square;stroke-linejoin:round;paint-order:fill markers stroke"
         d="m 19.873098,94.962453 c 11.514074,12.560417 9.085737,17.256557 19.706814,3.16501 3.429297,-4.54984 9.802762,8.067187 12.334777,11.622637 v 5.93899 c 0,3.23895 -2.607534,5.84649 -5.846489,5.84649 H 11.802301 c -3.2389552,0 -5.8464895,-2.60754 -5.8464895,-5.84649 v -8.1545 C 9.4373317,102.08013 16.15512,90.906593 19.873098,94.962453 Z"
         sodipodi:nodetypes="sscsssscs" /><circle
         style="fill:#fecd1a;fill-opacity:1;stroke:none;stroke-width:1.33018;stroke-linecap:square;stroke-linejoin:round;paint-order:fill markers stroke"
         id="circle13"
         cx="37.38678"
         cy="85.146118"
         r="4.4705887" /></g><g
       id="g27"
       transform="matrix(0.55812589,0,0,0.38698442,23.140889,33.365439)"
       style="stroke-width:2.15173"><rect
         style="fill:#ac9d93;fill-opacity:1;stroke:none;stroke-width:0.569311;stroke-linecap:square;stroke-linejoin:round;paint-order:fill markers stroke"
         id="rect20"
         width="45.958878"
         height="45.958874"
         x="59.396355"
         y="75.576706"
         ry="5.8464894" /><path
         id="path20"
         style="fill:#44aa00;fill-opacity:1;stroke-width:0.569311;stroke-linecap:square;stroke-linejoin:round;paint-order:fill markers stroke"
         d="m 73.313641,94.962453 c 11.514074,12.560417 9.085737,17.256557 19.706814,3.16501 3.429297,-4.54984 9.802765,8.067187 12.334775,11.622637 v 5.93899 c 0,3.23895 -2.60753,5.84649 -5.846487,5.84649 H 65.242844 c -3.238955,0 -5.846489,-2.60754 -5.846489,-5.84649 v -8.1545 c 3.48152,-5.45446 10.199308,-16.627997 13.917286,-12.572137 z"
         sodipodi:nodetypes="sscsssscs" /><circle
         style="fill:#ffff00;fill-opacity:1;stroke:none;stroke-width:0.569311;stroke-linecap:square;stroke-linejoin:round;paint-order:fill markers stroke"
         id="circle26"
         cx="74.426987"
         cy="84.476715"
         r="4.4705887" /><circle
         style="fill:#ac9d93;fill-opacity:1;stroke:none;stroke-width:0.569311;stroke-linecap:square;stroke-linejoin:round;paint-order:fill markers stroke"
         id="circle27"
         cx="76.957619"
         cy="85.60347"
         r="4.4705887" /></g><g
       id="g29"
       transform="matrix(0.36644752,0,0,0.59235414,2.2194425,9.2046758)"
       style="stroke-width:2.14636"><rect
         style="fill:#ac9d93;fill-opacity:1;stroke:none;stroke-width:0.567891;stroke-linecap:square;stroke-linejoin:round;paint-order:fill markers stroke"
         id="rect27"
         width="45.958878"
         height="45.958874"
         x="59.396355"
         y="75.576706"
         ry="5.8464894" /><path
         id="path27"
         style="fill:#44aa00;fill-opacity:1;stroke-width:0.567891;stroke-linecap:square;stroke-linejoin:round;paint-order:fill markers stroke"
         d="m 73.313641,94.962453 c 11.514074,12.560417 9.085737,17.256557 19.706814,3.16501 3.429297,-4.54984 9.802765,8.067187 12.334775,11.622637 v 5.93899 c 0,3.23895 -2.60753,5.84649 -5.846487,5.84649 H 65.242844 c -3.238955,0 -5.846489,-2.60754 -5.846489,-5.84649 v -8.1545 c 3.48152,-5.45446 10.199308,-16.627997 13.917286,-12.572137 z"
         sodipodi:nodetypes="sscsssscs" /><circle
         style="fill:#ffff00;fill-opacity:1;stroke:none;stroke-width:0.567891;stroke-linecap:square;stroke-linejoin:round;paint-order:fill markers stroke"
         id="circle28"
         cx="74.426987"
         cy="84.476715"
         r="4.4705887" /><circle
         style="fill:#ac9d93;fill-opacity:1;stroke:none;stroke-width:0.567891;stroke-linecap:square;stroke-linejoin:round;paint-order:fill markers stroke"
         id="circle29"
         cx="76.957619"
         cy="85.60347"
         r="4.4705887" /></g><rect
       style="fill:#ff0000;stroke-width:0.264583;stroke-linecap:square;stroke-linejoin:round;paint-order:fill markers stroke"
       id="rect29"
       width="17.15867"
       height="27.797667"
       x="-17.15867"
       y="81.332253"
       ry="5.8464894" /><rect
       style="fill:#ff0000;stroke-width:0.264583;stroke-linecap:square;stroke-linejoin:round;paint-order:fill markers stroke"
       id="rect30"
       width="24.709518"
       height="18.044489"
       x="56.390808"
       y="96.748573"
       ry="3.7951715" /><rect
       style="fill:#ff0000;stroke-width:0.264583;stroke-linecap:square;stroke-linejoin:round;paint-order:fill markers stroke"
       id="rect31"
       width="13.124466"
       height="18.044489"
       x="80.931061"
       y="87.939247"
       ry="3.7951715" /><rect
       style="fill:#0000ff;stroke-width:0.264583;stroke-linecap:square;stroke-linejoin:round;paint-order:fill markers stroke"
       id="rect32"
       width="13.124466"
       height="18.044489"
       x="109.03359"
       y="93.287766"
       ry="3.7951715" /><g
       id="g33"
       transform="matrix(0.55812589,0,0,0.16450063,93.081322,41.370709)"
       style="stroke-width:3.30028"><rect
         style="fill:#2568ef;fill-opacity:1;stroke:none;stroke-width:0.873197;stroke-linecap:square;stroke-linejoin:round;paint-order:fill markers stroke"
         id="rect33"
         width="45.958878"
         height="45.958874"
         x="5.9558115"
         y="75.576706"
         ry="5.8464894" /><path
         id="path33"
         style="fill:#bde321;fill-opacity:1;stroke-width:0.873197;stroke-linecap:square;stroke-linejoin:round;paint-order:fill markers stroke"
         d="m 19.873098,94.962453 c 11.514074,12.560417 9.085737,17.256557 19.706814,3.16501 3.429297,-4.54984 9.802762,8.067187 12.334777,11.622637 v 5.93899 c 0,3.23895 -2.607534,5.84649 -5.846489,5.84649 H 11.802301 c -3.2389552,0 -5.8464895,-2.60754 -5.8464895,-5.84649 v -8.1545 C 9.4373317,102.08013 16.15512,90.906593 19.873098,94.962453 Z"
         sodipodi:nodetypes="sscsssscs" /><circle
         style="fill:#fecd1a;fill-opacity:1;stroke:none;stroke-width:0.873197;stroke-linecap:square;stroke-linejoin:round;paint-order:fill markers stroke"
         id="circle33"
         cx="37.38678"
         cy="85.146118"
         r="4.4705887" /></g><rect
       style="fill:#0000ff;stroke-width:0.264583;stroke-linecap:square;stroke-linejoin:round;paint-order:fill markers stroke"
       id="rect34"
       width="18.472984"
       height="13.167901"
       x="145.84399"
       y="94.833221"
       ry="2.7695127" /><rect
       style="fill:#ff0000;stroke-width:0.264583;stroke-linecap:square;stroke-linejoin:round;paint-order:fill markers stroke"
       id="rect35"
       width="18.472982"
       height="13.167901"
       x="128.69727"
       y="110.59179"
       ry="2.7695127" /><g
       id="g36"
       transform="matrix(0.19188332,0,0,0.25691699,136.00571,35.487351)"
       style="stroke-width:4.50387"><rect
         style="fill:#2568ef;fill-opacity:1;stroke:none;stroke-width:1.19164;stroke-linecap:square;stroke-linejoin:round;paint-order:fill markers stroke"
         id="rect36"
         width="45.958878"
         height="45.958874"
         x="5.9558115"
         y="75.576706"
         ry="5.8464894" /><path
         id="path36"
         style="fill:#bde321;fill-opacity:1;stroke-width:1.19164;stroke-linecap:square;stroke-linejoin:round;paint-order:fill markers stroke"
         d="m 19.873098,94.962453 c 11.514074,12.560417 9.085737,17.256557 19.706814,3.16501 3.429297,-4.54984 9.802762,8.067187 12.334777,11.622637 v 5.93899 c 0,3.23895 -2.607534,5.84649 -5.846489,5.84649 H 11.802301 c -3.2389552,0 -5.8464895,-2.60754 -5.8464895,-5.84649 v -8.1545 C 9.4373317,102.08013 16.15512,90.906593 19.873098,94.962453 Z"
         sodipodi:nodetypes="sscsssscs" /><circle
         style="fill:#fecd1a;fill-opacity:1;stroke:none;stroke-width:1.19164;stroke-linecap:square;stroke-linejoin:round;paint-order:fill markers stroke"
         id="circle36"
         cx="37.38678"
         cy="85.146118"
         r="4.4705887" /></g><g
       id="g38"
       transform="matrix(0.31362931,0,0,0.38698442,76.675807,33.365439)"
       style="stroke-width:2.87042"><rect
         style="fill:#ac9d93;fill-opacity:1;stroke:none;stroke-width:0.759465;stroke-linecap:square;stroke-linejoin:round;paint-order:fill markers stroke"
         id="rect37"
         width="45.958878"
         height="45.958874"
         x="59.396355"
         y="75.576706"
         ry="5.8464894" /><path
         id="path37"
         style="fill:#44aa00;fill-opacity:1;stroke-width:0.759465;stroke-linecap:square;stroke-linejoin:round;paint-order:fill markers stroke"
         d="m 73.313641,94.962453 c 11.514074,12.560417 9.085737,17.256557 19.706814,3.16501 3.429297,-4.54984 9.802765,8.067187 12.334775,11.622637 v 5.93899 c 0,3.23895 -2.60753,5.84649 -5.846487,5.84649 H 65.242844 c -3.238955,0 -5.846489,-2.60754 -5.846489,-5.84649 v -8.1545 c 3.48152,-5.45446 10.199308,-16.627997 13.917286,-12.572137 z"
         sodipodi:nodetypes="sscsssscs" /><circle
         style="fill:#ffff00;fill-opacity:1;stroke:none;stroke-width:0.759465;stroke-linecap:square;stroke-linejoin:round;paint-order:fill markers stroke"
         id="circle37"
         cx="74.426987"
         cy="84.476715"
         r="4.4705887" /><circle
         style="fill:#ac9d93;fill-opacity:1;stroke:none;stroke-width:0.759465;stroke-linecap:square;stroke-linejoin:round;paint-order:fill markers stroke"
         id="circle38"
         cx="76.957619"
         cy="85.60347"
         r="4.4705887" /></g><g
       id="g40"
       transform="matrix(0.27403118,0,0,0.38698442,94.293386,33.365439)"
       style="stroke-width:3.07082"><rect
         style="fill:#ac9d93;fill-opacity:1;stroke:none;stroke-width:0.812486;stroke-linecap:square;stroke-linejoin:round;paint-order:fill markers stroke"
         id="rect38"
         width="45.958878"
         height="45.958874"
         x="59.396355"
         y="75.576706"
         ry="5.8464894" /><path
         id="path38"
         style="fill:#44aa00;fill-opacity:1;stroke-width:0.812486;stroke-linecap:square;stroke-linejoin:round;paint-order:fill markers stroke"
         d="m 73.313641,94.962453 c 11.514074,12.560417 9.085737,17.256557 19.706814,3.16501 3.429297,-4.54984 9.802765,8.067187 12.334775,11.622637 v 5.93899 c 0,3.23895 -2.60753,5.84649 -5.846487,5.84649 H 65.242844 c -3.238955,0 -5.846489,-2.60754 -5.846489,-5.84649 v -8.1545 c 3.48152,-5.45446 10.199308,-16.627997 13.917286,-12.572137 z"
         sodipodi:nodetypes="sscsssscs" /><circle
         style="fill:#ffff00;fill-opacity:1;stroke:none;stroke-width:0.812486;stroke-linecap:square;stroke-linejoin:round;paint-order:fill markers stroke"
         id="circle39"
         cx="74.426987"
         cy="84.476715"
         r="4.4705887" /><circle
         style="fill:#ac9d93;fill-opacity:1;stroke:none;stroke-width:0.812486;stroke-linecap:square;stroke-linejoin:round;paint-order:fill markers stroke"
         id="circle40"
         cx="76.957619"
         cy="85.60347"
         r="4.4705887" /></g><g
       id="g42"
       transform="matrix(0.40752146,0,0,0.29456806,122.69641,32.956425)"
       style="stroke-width:2.88625"><rect
         style="fill:#ac9d93;fill-opacity:1;stroke:none;stroke-width:0.76365;stroke-linecap:square;stroke-linejoin:round;paint-order:fill markers stroke"
         id="rect40"
         width="45.958878"
         height="45.958874"
         x="59.396355"
         y="75.576706"
         ry="5.8464894" /><path
         id="path40"
         style="fill:#44aa00;fill-opacity:1;stroke-width:0.76365;stroke-linecap:square;stroke-linejoin:round;paint-order:fill markers stroke"
         d="m 73.313641,94.962453 c 11.514074,12.560417 9.085737,17.256557 19.706814,3.16501 3.429297,-4.54984 9.802765,8.067187 12.334775,11.622637 v 5.93899 c 0,3.23895 -2.60753,5.84649 -5.846487,5.84649 H 65.242844 c -3.238955,0 -5.846489,-2.60754 -5.846489,-5.84649 v -8.1545 c 3.48152,-5.45446 10.199308,-16.627997 13.917286,-12.572137 z"
         sodipodi:nodetypes="sscsssscs" /><circle
         style="fill:#ffff00;fill-opacity:1;stroke:none;stroke-width:0.76365;stroke-linecap:square;stroke-linejoin:round;paint-order:fill markers stroke"
         id="circle41"
         cx="74.426987"
         cy="84.476715"
         r="4.4705887" /><circle
         style="fill:#ac9d93;fill-opacity:1;stroke:none;stroke-width:0.76365;stroke-linecap:square;stroke-linejoin:round;paint-order:fill markers stroke"
         id="circle42"
         cx="76.957619"
         cy="85.60347"
         r="4.4705887" /></g><g
       id="g44"
       transform="matrix(0.40752146,0,0,0.24148,122.69641,52.307879)"
       style="stroke-width:3.18776"><rect
         style="fill:#ac9d93;fill-opacity:1;stroke:none;stroke-width:0.843425;stroke-linecap:square;stroke-linejoin:round;paint-order:fill markers stroke"
         id="rect42"
         width="45.958878"
         height="45.958874"
         x="59.396355"
         y="75.576706"
         ry="5.8464894" /><path
         id="path42"
         style="fill:#44aa00;fill-opacity:1;stroke-width:0.843425;stroke-linecap:square;stroke-linejoin:round;paint-order:fill markers stroke"
         d="m 73.313641,94.962453 c 11.514074,12.560417 9.085737,17.256557 19.706814,3.16501 3.429297,-4.54984 9.802765,8.067187 12.334775,11.622637 v 5.93899 c 0,3.23895 -2.60753,5.84649 -5.846487,5.84649 H 65.242844 c -3.238955,0 -5.846489,-2.60754 -5.846489,-5.84649 v -8.1545 c 3.48152,-5.45446 10.199308,-16.627997 13.917286,-12.572137 z"
         sodipodi:nodetypes="sscsssscs" /><circle
         style="fill:#ffff00;fill-opacity:1;stroke:none;stroke-width:0.843425;stroke-linecap:square;stroke-linejoin:round;paint-order:fill markers stroke"
         id="circle43"
         cx="74.426987"
         cy="84.476715"
         r="4.4705887" /><circle
         style="fill:#ac9d93;fill-opacity:1;stroke:none;stroke-width:0.843425;stroke-linecap:square;stroke-linejoin:round;paint-order:fill markers stroke"
         id="circle44"
         cx="76.957619"
         cy="85.60347"
         r="4.4705887" /></g></g></svg>
