<?xml version="1.0" encoding="UTF-8" standalone="no"?>
<!-- Created with Inkscape (http://www.inkscape.org/) -->

<svg
   width="210mm"
   height="297mm"
   viewBox="0 0 210 297"
   version="1.1"
   id="svg5"
   inkscape:version="1.4.2 (f4327f4, 2025-05-13)"
   sodipodi:docname="dispositions.svg"
   xml:space="preserve"
   inkscape:export-filename="disposition-00.png"
   inkscape:export-xdpi="96"
   inkscape:export-ydpi="96"
   xmlns:inkscape="http://www.inkscape.org/namespaces/inkscape"
   xmlns:sodipodi="http://sodipodi.sourceforge.net/DTD/sodipodi-0.dtd"
   xmlns:xlink="http://www.w3.org/1999/xlink"
   xmlns="http://www.w3.org/2000/svg"
   xmlns:svg="http://www.w3.org/2000/svg"><sodipodi:namedview
     id="namedview7"
     pagecolor="#ffffff"
     bordercolor="#000000"
     borderopacity="0.25"
     inkscape:showpageshadow="2"
     inkscape:pageopacity="0.0"
     inkscape:pagecheckerboard="0"
     inkscape:deskcolor="#d1d1d1"
     inkscape:document-units="mm"
     showgrid="false"
     inkscape:zoom="1.1928584"
     inkscape:cx="295.50867"
     inkscape:cy="214.19139"
     inkscape:window-width="1904"
     inkscape:window-height="993"
     inkscape:window-x="0"
     inkscape:window-y="0"
     inkscape:window-maximized="0"
     inkscape:current-layer="layer1" /><defs
     id="defs2"><rect
       x="-241.31753"
       y="184.14125"
       width="89.968556"
       height="105.10345"
       id="rect4041" /><rect
       x="-241.31753"
       y="184.14125"
       width="89.968556"
       height="105.10345"
       id="rect4073" /><rect
       x="-241.31753"
       y="184.14125"
       width="89.968556"
       height="105.10345"
       id="rect4079" /><rect
       x="-241.31753"
       y="184.14125"
       width="89.968556"
       height="105.10345"
       id="rect4085" /><rect
       x="-241.31753"
       y="184.14125"
       width="89.968556"
       height="105.10345"
       id="rect4091" /><rect
       x="-241.31753"
       y="184.14125"
       width="89.968556"
       height="105.10345"
       id="rect4097" /><rect
       x="-241.31753"
       y="184.14125"
       width="89.968556"
       height="105.10345"
       id="rect4103" /><rect
       x="-241.31753"
       y="184.14125"
       width="89.968556"
       height="105.10345"
       id="rect4109" /><rect
       x="-241.31753"
       y="184.14125"
       width="89.968556"
       height="105.10345"
       id="rect4115" /><rect
       x="-241.31753"
       y="184.14125"
       width="89.968556"
       height="105.10345"
       id="rect4121" /><rect
       x="-241.31753"
       y="184.14125"
       width="89.968556"
       height="105.10345"
       id="rect4127" /><rect
       x="-241.31753"
       y="184.14125"
       width="89.968556"
       height="105.10345"
       id="rect4133" /><rect
       x="-241.31753"
       y="184.14125"
       width="89.968556"
       height="105.10345"
       id="rect4139" /><rect
       x="-241.31753"
       y="184.14125"
       width="89.968556"
       height="105.10345"
       id="rect4145" /><rect
       x="-241.31753"
       y="184.14125"
       width="89.968556"
       height="105.10345"
       id="rect4151" /><rect
       x="-241.31753"
       y="184.14125"
       width="89.968556"
       height="105.10345"
       id="rect507" /><rect
       x="-241.31753"
       y="184.14125"
       width="89.968556"
       height="105.10345"
       id="rect509" /><rect
       x="-241.31753"
       y="184.14125"
       width="89.968556"
       height="105.10345"
       id="rect511" /><rect
       x="-241.31753"
       y="184.14125"
       width="89.968556"
       height="105.10345"
       id="rect513" /><rect
       x="-241.31753"
       y="184.14125"
       width="89.968556"
       height="105.10345"
       id="rect646" /><rect
       x="-241.31753"
       y="184.14125"
       width="89.968556"
       height="105.10345"
       id="rect1268" /><rect
       x="-241.31753"
       y="184.14125"
       width="89.968556"
       height="105.10345"
       id="rect1074" /></defs><g
     inkscape:label="base"
     inkscape:groupmode="layer"
     id="g1072"
     style="display:inline"><rect
       style="fill:#decd87;stroke:#000000;stroke-width:0.111;paint-order:stroke fill markers;stop-color:#000000"
       id="rect946"
       width="30"
       height="30"
       x="-84.246513"
       y="10.011105"
       ry="1.6685174"
       transform="scale(-1,1)"
       inkscape:export-filename="disposition-01.png"
       inkscape:export-xdpi="96"
       inkscape:export-ydpi="96" /><rect
       style="fill:#decd87;stroke:#000000;stroke-width:0.111;paint-order:stroke fill markers;stop-color:#000000"
       id="rect980"
       width="30"
       height="30"
       x="12.087615"
       y="10.011105"
       ry="1.6685174"
       inkscape:export-filename="disposition-01.png"
       inkscape:export-xdpi="96"
       inkscape:export-ydpi="96" /><rect
       style="fill:#decd87;stroke:#000000;stroke-width:0.111;paint-order:stroke fill markers;stop-color:#000000"
       id="rect383"
       width="30"
       height="30"
       x="-166.36198"
       y="10.011105"
       ry="1.6685174"
       transform="scale(-1,1)"
       inkscape:export-filename="disposition-02.png"
       inkscape:export-xdpi="96"
       inkscape:export-ydpi="96" /><rect
       style="fill:#decd87;stroke:#000000;stroke-width:0.111;paint-order:stroke fill markers;stop-color:#000000"
       id="rect385"
       width="30"
       height="30"
       x="94.203079"
       y="10.011105"
       ry="1.6685174"
       inkscape:export-filename="disposition-01.png"
       inkscape:export-xdpi="96"
       inkscape:export-ydpi="96" /></g><g
     inkscape:label="Calque 1"
     inkscape:groupmode="layer"
     id="layer1"
     style="display:inline"><g
       id="g12"
       transform="translate(10.633387,32.8384)"><rect
         style="fill:#2568ef;fill-opacity:1;stroke:none;stroke-width:0.264583;stroke-linecap:square;stroke-linejoin:round;paint-order:fill markers stroke"
         id="rect9"
         width="45.958878"
         height="45.958874"
         x="5.9558115"
         y="75.576706"
         ry="5.8464894" /><path
         id="rect10"
         style="fill:#bde321;fill-opacity:1;stroke-width:0.264583;stroke-linecap:square;stroke-linejoin:round;paint-order:fill markers stroke"
         d="m 19.873098,94.962453 c 11.514074,12.560417 9.085737,17.256557 19.706814,3.16501 3.429297,-4.54984 9.802762,8.067187 12.334777,11.622637 v 5.93899 c 0,3.23895 -2.607534,5.84649 -5.846489,5.84649 H 11.802301 c -3.2389552,0 -5.8464895,-2.60754 -5.8464895,-5.84649 v -8.1545 C 9.4373317,102.08013 16.15512,90.906593 19.873098,94.962453 Z"
         sodipodi:nodetypes="sscsssscs" /><circle
         style="fill:#fecd1a;fill-opacity:1;stroke:none;stroke-width:0.264583;stroke-linecap:square;stroke-linejoin:round;paint-order:fill markers stroke"
         id="path10"
         cx="37.38678"
         cy="85.146118"
         r="4.4705887" /></g><image
       width="46.223461"
       height="46.223457"
       preserveAspectRatio="none"
       xlink:href="../../../../assets/images/paysage-01.png"
       id="image10"
       x="6.7168469"
       y="188.28128"
       style="stroke-width:1.92708" /><g
       id="g13"
       transform="translate(10.633387,32.8384)"><rect
         style="fill:#ac9d93;fill-opacity:1;stroke:none;stroke-width:0.264583;stroke-linecap:square;stroke-linejoin:round;paint-order:fill markers stroke"
         id="rect11"
         width="45.958878"
         height="45.958874"
         x="59.396355"
         y="75.576706"
         ry="5.8464894" /><path
         id="path11"
         style="fill:#44aa00;fill-opacity:1;stroke-width:0.264583;stroke-linecap:square;stroke-linejoin:round;paint-order:fill markers stroke"
         d="m 73.313641,94.962453 c 11.514074,12.560417 9.085737,17.256557 19.706814,3.16501 3.429297,-4.54984 9.802765,8.067187 12.334775,11.622637 v 5.93899 c 0,3.23895 -2.60753,5.84649 -5.846487,5.84649 H 65.242844 c -3.238955,0 -5.846489,-2.60754 -5.846489,-5.84649 v -8.1545 c 3.48152,-5.45446 10.199308,-16.627997 13.917286,-12.572137 z"
         sodipodi:nodetypes="sscsssscs" /><circle
         style="fill:#ffff00;fill-opacity:1;stroke:none;stroke-width:0.264583;stroke-linecap:square;stroke-linejoin:round;paint-order:fill markers stroke"
         id="circle11"
         cx="74.426987"
         cy="84.476715"
         r="4.4705887" /><circle
         style="fill:#ac9d93;fill-opacity:1;stroke:none;stroke-width:0.264583;stroke-linecap:square;stroke-linejoin:round;paint-order:fill markers stroke"
         id="circle12"
         cx="76.957619"
         cy="85.60347"
         r="4.4705887" /></g><g
       id="g14"
       transform="translate(10.633387,32.8384)"><rect
         style="fill:#2568ef;fill-opacity:1;stroke:none;stroke-width:0.264583;stroke-linecap:square;stroke-linejoin:round;paint-order:fill markers stroke"
         id="rect14"
         width="45.958878"
         height="45.958874"
         x="5.9558115"
         y="75.576706"
         ry="5.8464894" /><path
         id="path14"
         style="fill:#bde321;fill-opacity:1;stroke-width:0.264583;stroke-linecap:square;stroke-linejoin:round;paint-order:fill markers stroke"
         d="m 19.873098,94.962453 c 11.514074,12.560417 9.085737,17.256557 19.706814,3.16501 3.429297,-4.54984 9.802762,8.067187 12.334777,11.622637 v 5.93899 c 0,3.23895 -2.607534,5.84649 -5.846489,5.84649 H 11.802301 c -3.2389552,0 -5.8464895,-2.60754 -5.8464895,-5.84649 v -8.1545 C 9.4373317,102.08013 16.15512,90.906593 19.873098,94.962453 Z"
         sodipodi:nodetypes="sscsssscs" /><circle
         style="fill:#fecd1a;fill-opacity:1;stroke:none;stroke-width:0.264583;stroke-linecap:square;stroke-linejoin:round;paint-order:fill markers stroke"
         id="circle14"
         cx="37.38678"
         cy="85.146118"
         r="4.4705887" /></g><g
       id="g17"
       transform="matrix(0.55812589,0,0,0.55812584,10.965853,-29.967879)"
       style="stroke-width:1.79171"><rect
         style="fill:#2568ef;fill-opacity:1;stroke:none;stroke-width:0.474056;stroke-linecap:square;stroke-linejoin:round;paint-order:fill markers stroke"
         id="rect17"
         width="45.958878"
         height="45.958874"
         x="5.9558115"
         y="75.576706"
         ry="5.8464894" /><path
         id="path17"
         style="fill:#bde321;fill-opacity:1;stroke-width:0.474056;stroke-linecap:square;stroke-linejoin:round;paint-order:fill markers stroke"
         d="m 19.873098,94.962453 c 11.514074,12.560417 9.085737,17.256557 19.706814,3.16501 3.429297,-4.54984 9.802762,8.067187 12.334777,11.622637 v 5.93899 c 0,3.23895 -2.607534,5.84649 -5.846489,5.84649 H 11.802301 c -3.2389552,0 -5.8464895,-2.60754 -5.8464895,-5.84649 v -8.1545 C 9.4373317,102.08013 16.15512,90.906593 19.873098,94.962453 Z"
         sodipodi:nodetypes="sscsssscs" /><circle
         style="fill:#fecd1a;fill-opacity:1;stroke:none;stroke-width:0.474056;stroke-linecap:square;stroke-linejoin:round;paint-order:fill markers stroke"
         id="circle17"
         cx="37.38678"
         cy="85.146118"
         r="4.4705887" /></g><g
       id="g19"
       transform="translate(10.633387,32.8384)"><rect
         style="fill:#ac9d93;fill-opacity:1;stroke:none;stroke-width:0.264583;stroke-linecap:square;stroke-linejoin:round;paint-order:fill markers stroke"
         id="rect18"
         width="45.958878"
         height="45.958874"
         x="59.396355"
         y="75.576706"
         ry="5.8464894" /><path
         id="path18"
         style="fill:#44aa00;fill-opacity:1;stroke-width:0.264583;stroke-linecap:square;stroke-linejoin:round;paint-order:fill markers stroke"
         d="m 73.313641,94.962453 c 11.514074,12.560417 9.085737,17.256557 19.706814,3.16501 3.429297,-4.54984 9.802765,8.067187 12.334775,11.622637 v 5.93899 c 0,3.23895 -2.60753,5.84649 -5.846487,5.84649 H 65.242844 c -3.238955,0 -5.846489,-2.60754 -5.846489,-5.84649 v -8.1545 c 3.48152,-5.45446 10.199308,-16.627997 13.917286,-12.572137 z"
         sodipodi:nodetypes="sscsssscs" /><circle
         style="fill:#ffff00;fill-opacity:1;stroke:none;stroke-width:0.264583;stroke-linecap:square;stroke-linejoin:round;paint-order:fill markers stroke"
         id="circle18"
         cx="74.426987"
         cy="84.476715"
         r="4.4705887" /><circle
         style="fill:#ac9d93;fill-opacity:1;stroke:none;stroke-width:0.264583;stroke-linecap:square;stroke-linejoin:round;paint-order:fill markers stroke"
         id="circle19"
         cx="76.957619"
         cy="85.60347"
         r="4.4705887" /></g><g
       id="g21"
       transform="translate(10.633387,32.8384)"><rect
         style="fill:#ac9d93;fill-opacity:1;stroke:none;stroke-width:0.264583;stroke-linecap:square;stroke-linejoin:round;paint-order:fill markers stroke"
         id="rect19"
         width="45.958878"
         height="45.958874"
         x="59.396355"
         y="75.576706"
         ry="5.8464894" /><path
         id="path19"
         style="fill:#44aa00;fill-opacity:1;stroke-width:0.264583;stroke-linecap:square;stroke-linejoin:round;paint-order:fill markers stroke"
         d="m 73.313641,94.962453 c 11.514074,12.560417 9.085737,17.256557 19.706814,3.16501 3.429297,-4.54984 9.802765,8.067187 12.334775,11.622637 v 5.93899 c 0,3.23895 -2.60753,5.84649 -5.846487,5.84649 H 65.242844 c -3.238955,0 -5.846489,-2.60754 -5.846489,-5.84649 v -8.1545 c 3.48152,-5.45446 10.199308,-16.627997 13.917286,-12.572137 z"
         sodipodi:nodetypes="sscsssscs" /><circle
         style="fill:#ffff00;fill-opacity:1;stroke:none;stroke-width:0.264583;stroke-linecap:square;stroke-linejoin:round;paint-order:fill markers stroke"
         id="circle20"
         cx="74.426987"
         cy="84.476715"
         r="4.4705887" /><circle
         style="fill:#ac9d93;fill-opacity:1;stroke:none;stroke-width:0.264583;stroke-linecap:square;stroke-linejoin:round;paint-order:fill markers stroke"
         id="circle21"
         cx="76.957619"
         cy="85.60347"
         r="4.4705887" /></g><g
       id="g23"
       transform="matrix(0.29799098,0,0,0.48282361,219.67777,-21.462064)"
       style="stroke-width:2.63636"><rect
         style="fill:#ac9d93;fill-opacity:1;stroke:none;stroke-width:0.697535;stroke-linecap:square;stroke-linejoin:round;paint-order:fill markers stroke"
         id="rect21"
         width="45.958878"
         height="45.958874"
         x="59.396355"
         y="75.576706"
         ry="5.8464894" /><path
         id="path21"
         style="fill:#44aa00;fill-opacity:1;stroke-width:0.697535;stroke-linecap:square;stroke-linejoin:round;paint-order:fill markers stroke"
         d="m 73.313641,94.962453 c 11.514074,12.560417 9.085737,17.256557 19.706814,3.16501 3.429297,-4.54984 9.802765,8.067187 12.334775,11.622637 v 5.93899 c 0,3.23895 -2.60753,5.84649 -5.846487,5.84649 H 65.242844 c -3.238955,0 -5.846489,-2.60754 -5.846489,-5.84649 v -8.1545 c 3.48152,-5.45446 10.199308,-16.627997 13.917286,-12.572137 z"
         sodipodi:nodetypes="sscsssscs" /><circle
         style="fill:#ffff00;fill-opacity:1;stroke:none;stroke-width:0.697535;stroke-linecap:square;stroke-linejoin:round;paint-order:fill markers stroke"
         id="circle22"
         cx="74.426987"
         cy="84.476715"
         r="4.4705887" /><circle
         style="fill:#ac9d93;fill-opacity:1;stroke:none;stroke-width:0.697535;stroke-linecap:square;stroke-linejoin:round;paint-order:fill markers stroke"
         id="circle23"
         cx="76.957619"
         cy="85.60347"
         r="4.4705887" /></g><g
       id="g25"
       transform="matrix(0.55812588,0,0,0.28772244,203.5976,62.010493)"
       style="stroke-width:2.49544"><rect
         style="fill:#ac9d93;fill-opacity:1;stroke:none;stroke-width:0.660251;stroke-linecap:square;stroke-linejoin:round;paint-order:fill markers stroke"
         id="rect23"
         width="45.958878"
         height="45.958874"
         x="59.396355"
         y="75.576706"
         ry="5.8464894" /><path
         id="path23"
         style="fill:#44aa00;fill-opacity:1;stroke-width:0.660251;stroke-linecap:square;stroke-linejoin:round;paint-order:fill markers stroke"
         d="m 73.313641,94.962453 c 11.514074,12.560417 9.085737,17.256557 19.706814,3.16501 3.429297,-4.54984 9.802765,8.067187 12.334775,11.622637 v 5.93899 c 0,3.23895 -2.60753,5.84649 -5.846487,5.84649 H 65.242844 c -3.238955,0 -5.846489,-2.60754 -5.846489,-5.84649 v -8.1545 c 3.48152,-5.45446 10.199308,-16.627997 13.917286,-12.572137 z"
         sodipodi:nodetypes="sscsssscs" /><circle
         style="fill:#ffff00;fill-opacity:1;stroke:none;stroke-width:0.660251;stroke-linecap:square;stroke-linejoin:round;paint-order:fill markers stroke"
         id="circle24"
         cx="74.426987"
         cy="84.476715"
         r="4.4705887" /><circle
         style="fill:#ac9d93;fill-opacity:1;stroke:none;stroke-width:0.660251;stroke-linecap:square;stroke-linejoin:round;paint-order:fill markers stroke"
         id="circle25"
         cx="76.957619"
         cy="85.60347"
         r="4.4705887" /></g><g
       id="g1"
       transform="translate(124.47318,32.8384)"><rect
         style="fill:#2568ef;fill-opacity:1;stroke:none;stroke-width:0.264583;stroke-linecap:square;stroke-linejoin:round;paint-order:fill markers stroke"
         id="rect1"
         width="45.958878"
         height="45.958874"
         x="5.9558115"
         y="75.576706"
         ry="5.8464894" /><path
         id="path1"
         style="fill:#bde321;fill-opacity:1;stroke-width:0.264583;stroke-linecap:square;stroke-linejoin:round;paint-order:fill markers stroke"
         d="m 19.873098,94.962453 c 11.514074,12.560417 9.085737,17.256557 19.706814,3.16501 3.429297,-4.54984 9.802762,8.067187 12.334777,11.622637 v 5.93899 c 0,3.23895 -2.607534,5.84649 -5.846489,5.84649 H 11.802301 c -3.2389552,0 -5.8464895,-2.60754 -5.8464895,-5.84649 v -8.1545 C 9.4373317,102.08013 16.15512,90.906593 19.873098,94.962453 Z"
         sodipodi:nodetypes="sscsssscs" /><circle
         style="fill:#fecd1a;fill-opacity:1;stroke:none;stroke-width:0.264583;stroke-linecap:square;stroke-linejoin:round;paint-order:fill markers stroke"
         id="circle1"
         cx="37.38678"
         cy="85.146118"
         r="4.4705887" /></g><rect
       style="fill:#2568ef;fill-opacity:1;stroke:none;stroke-width:0.264583;stroke-linecap:square;stroke-linejoin:round;paint-order:fill markers stroke"
       id="rect2"
       width="45.958878"
       height="45.958874"
       x="130.42899"
       y="108.41511"
       ry="5.8464894" /><path
       id="path2"
       style="fill:#bde321;fill-opacity:1;stroke-width:0.264583;stroke-linecap:square;stroke-linejoin:round;paint-order:fill markers stroke"
       d="m 144.34628,140.21789 c 11.51407,6.69121 9.08573,9.19295 19.70681,1.68607 3.4293,-2.4238 9.80276,4.29757 12.33478,6.19163 v 3.16384 c 0,1.72546 -2.60754,3.11455 -5.84649,3.11455 h -34.2659 c -3.23895,0 -5.84649,-1.38909 -5.84649,-3.11455 v -4.34409 c 3.48152,-2.90571 10.19931,-8.8581 13.91729,-6.69745 z"
       sodipodi:nodetypes="sscsssscs" /><circle
       style="fill:#fecd1a;fill-opacity:1;stroke:none;stroke-width:0.264583;stroke-linecap:square;stroke-linejoin:round;paint-order:fill markers stroke"
       id="circle2"
       cx="161.85995"
       cy="117.98452"
       r="4.4705887" /><g
       id="g101"><g
         id="g48"><rect
           style="fill:#ff0000;stroke-width:0.264583;stroke-linecap:square;stroke-linejoin:round;paint-order:fill markers stroke"
           id="rect25"
           width="4.5516105"
           height="1.6149173"
           x="107.7693"
           y="33.812405"
           ry="0.3396543" /><rect
           style="fill:#ff0000;stroke-width:0.264583;stroke-linecap:square;stroke-linejoin:round;paint-order:fill markers stroke"
           id="rect43"
           width="4.5516105"
           height="1.6149173"
           x="113.45921"
           y="33.812405"
           ry="0.3396543" /><rect
           style="fill:#ff0000;stroke-width:0.264583;stroke-linecap:square;stroke-linejoin:round;paint-order:fill markers stroke"
           id="rect48"
           width="4.5516105"
           height="1.6149173"
           x="118.92599"
           y="33.812405"
           ry="0.3396543" /></g><g
         id="g51"
         transform="translate(0,-20.974577)"><rect
           style="fill:#ff0000;stroke-width:0.264583;stroke-linecap:square;stroke-linejoin:round;paint-order:fill markers stroke"
           id="rect49"
           width="4.5516105"
           height="1.6149173"
           x="107.7693"
           y="33.812405"
           ry="0.3396543" /><rect
           style="fill:#ff0000;stroke-width:0.264583;stroke-linecap:square;stroke-linejoin:round;paint-order:fill markers stroke"
           id="rect50"
           width="4.5516105"
           height="1.6149173"
           x="113.45921"
           y="33.812405"
           ry="0.3396543" /><rect
           style="fill:#ff0000;stroke-width:0.264583;stroke-linecap:square;stroke-linejoin:round;paint-order:fill markers stroke"
           id="rect51"
           width="4.5516105"
           height="1.6149173"
           x="118.92599"
           y="33.812405"
           ry="0.3396543" /></g><g
         id="g54"
         transform="translate(0,-18.644068)"><rect
           style="fill:#ff0000;stroke-width:0.264583;stroke-linecap:square;stroke-linejoin:round;paint-order:fill markers stroke"
           id="rect52"
           width="4.5516105"
           height="1.6149173"
           x="107.7693"
           y="33.812405"
           ry="0.3396543" /><rect
           style="fill:#ff0000;stroke-width:0.264583;stroke-linecap:square;stroke-linejoin:round;paint-order:fill markers stroke"
           id="rect53"
           width="4.5516105"
           height="1.6149173"
           x="113.45921"
           y="33.812405"
           ry="0.3396543" /><rect
           style="fill:#ff0000;stroke-width:0.264583;stroke-linecap:square;stroke-linejoin:round;paint-order:fill markers stroke"
           id="rect54"
           width="4.5516105"
           height="1.6149173"
           x="118.92599"
           y="33.812405"
           ry="0.3396543" /></g><g
         id="g57"
         transform="translate(0,-16.31356)"><rect
           style="fill:#ff0000;stroke-width:0.264583;stroke-linecap:square;stroke-linejoin:round;paint-order:fill markers stroke"
           id="rect55"
           width="4.5516105"
           height="1.6149173"
           x="107.7693"
           y="33.812405"
           ry="0.3396543" /><rect
           style="fill:#ff0000;stroke-width:0.264583;stroke-linecap:square;stroke-linejoin:round;paint-order:fill markers stroke"
           id="rect56"
           width="4.5516105"
           height="1.6149173"
           x="113.45921"
           y="33.812405"
           ry="0.3396543" /><rect
           style="fill:#ff0000;stroke-width:0.264583;stroke-linecap:square;stroke-linejoin:round;paint-order:fill markers stroke"
           id="rect57"
           width="4.5516105"
           height="1.6149173"
           x="118.92599"
           y="33.812405"
           ry="0.3396543" /></g><g
         id="g60"
         transform="translate(0,-13.983051)"><rect
           style="fill:#ff0000;stroke-width:0.264583;stroke-linecap:square;stroke-linejoin:round;paint-order:fill markers stroke"
           id="rect58"
           width="4.5516105"
           height="1.6149173"
           x="107.7693"
           y="33.812405"
           ry="0.3396543" /><rect
           style="fill:#ff0000;stroke-width:0.264583;stroke-linecap:square;stroke-linejoin:round;paint-order:fill markers stroke"
           id="rect59"
           width="4.5516105"
           height="1.6149173"
           x="113.45921"
           y="33.812405"
           ry="0.3396543" /><rect
           style="fill:#ff0000;stroke-width:0.264583;stroke-linecap:square;stroke-linejoin:round;paint-order:fill markers stroke"
           id="rect60"
           width="4.5516105"
           height="1.6149173"
           x="118.92599"
           y="33.812405"
           ry="0.3396543" /></g><g
         id="g63"
         transform="translate(0,-11.652543)"><rect
           style="fill:#ff0000;stroke-width:0.264583;stroke-linecap:square;stroke-linejoin:round;paint-order:fill markers stroke"
           id="rect61"
           width="4.5516105"
           height="1.6149173"
           x="107.7693"
           y="33.812405"
           ry="0.3396543" /><rect
           style="fill:#ff0000;stroke-width:0.264583;stroke-linecap:square;stroke-linejoin:round;paint-order:fill markers stroke"
           id="rect62"
           width="4.5516105"
           height="1.6149173"
           x="113.45921"
           y="33.812405"
           ry="0.3396543" /><rect
           style="fill:#ff0000;stroke-width:0.264583;stroke-linecap:square;stroke-linejoin:round;paint-order:fill markers stroke"
           id="rect63"
           width="4.5516105"
           height="1.6149173"
           x="118.92599"
           y="33.812405"
           ry="0.3396543" /></g><g
         id="g66"
         transform="translate(0,-9.3220342)"><rect
           style="fill:#ff0000;stroke-width:0.264583;stroke-linecap:square;stroke-linejoin:round;paint-order:fill markers stroke"
           id="rect64"
           width="4.5516105"
           height="1.6149173"
           x="107.7693"
           y="33.812405"
           ry="0.3396543" /><rect
           style="fill:#ff0000;stroke-width:0.264583;stroke-linecap:square;stroke-linejoin:round;paint-order:fill markers stroke"
           id="rect65"
           width="4.5516105"
           height="1.6149173"
           x="113.45921"
           y="33.812405"
           ry="0.3396543" /><rect
           style="fill:#ff0000;stroke-width:0.264583;stroke-linecap:square;stroke-linejoin:round;paint-order:fill markers stroke"
           id="rect66"
           width="4.5516105"
           height="1.6149173"
           x="118.92599"
           y="33.812405"
           ry="0.3396543" /></g><g
         id="g69"
         transform="translate(0,-6.9915257)"><rect
           style="fill:#ff0000;stroke-width:0.264583;stroke-linecap:square;stroke-linejoin:round;paint-order:fill markers stroke"
           id="rect67"
           width="4.5516105"
           height="1.6149173"
           x="107.7693"
           y="33.812405"
           ry="0.3396543" /><rect
           style="fill:#ff0000;stroke-width:0.264583;stroke-linecap:square;stroke-linejoin:round;paint-order:fill markers stroke"
           id="rect68"
           width="4.5516105"
           height="1.6149173"
           x="113.45921"
           y="33.812405"
           ry="0.3396543" /><rect
           style="fill:#ff0000;stroke-width:0.264583;stroke-linecap:square;stroke-linejoin:round;paint-order:fill markers stroke"
           id="rect69"
           width="4.5516105"
           height="1.6149173"
           x="118.92599"
           y="33.812405"
           ry="0.3396543" /></g><g
         id="g72"
         transform="translate(0,-4.6610171)"><rect
           style="fill:#ff0000;stroke-width:0.264583;stroke-linecap:square;stroke-linejoin:round;paint-order:fill markers stroke"
           id="rect70"
           width="4.5516105"
           height="1.6149173"
           x="107.7693"
           y="33.812405"
           ry="0.3396543" /><rect
           style="fill:#ff0000;stroke-width:0.264583;stroke-linecap:square;stroke-linejoin:round;paint-order:fill markers stroke"
           id="rect71"
           width="4.5516105"
           height="1.6149173"
           x="113.45921"
           y="33.812405"
           ry="0.3396543" /><rect
           style="fill:#ff0000;stroke-width:0.264583;stroke-linecap:square;stroke-linejoin:round;paint-order:fill markers stroke"
           id="rect72"
           width="4.5516105"
           height="1.6149173"
           x="118.92599"
           y="33.812405"
           ry="0.3396543" /></g><g
         id="g75"
         transform="translate(0,-2.3305086)"><rect
           style="fill:#ff0000;stroke-width:0.264583;stroke-linecap:square;stroke-linejoin:round;paint-order:fill markers stroke"
           id="rect73"
           width="4.5516105"
           height="1.6149173"
           x="107.7693"
           y="33.812405"
           ry="0.3396543" /><rect
           style="fill:#ff0000;stroke-width:0.264583;stroke-linecap:square;stroke-linejoin:round;paint-order:fill markers stroke"
           id="rect74"
           width="4.5516105"
           height="1.6149173"
           x="113.45921"
           y="33.812405"
           ry="0.3396543" /><rect
           style="fill:#ff0000;stroke-width:0.264583;stroke-linecap:square;stroke-linejoin:round;paint-order:fill markers stroke"
           id="rect75"
           width="4.5516105"
           height="1.6149173"
           x="118.92599"
           y="33.812405"
           ry="0.3396543" /></g></g><g
       id="g78"
       transform="matrix(1.575296,0,0,1,-112.65062,-9.8178872)"
       style="stroke-width:0.796744"><rect
         style="fill:#ff0000;stroke-width:0.210805;stroke-linecap:square;stroke-linejoin:round;paint-order:fill markers stroke"
         id="rect76"
         width="4.5516105"
         height="1.6149173"
         x="107.7693"
         y="33.812405"
         ry="0.3396543" /><rect
         style="fill:#ff0000;stroke-width:0.210805;stroke-linecap:square;stroke-linejoin:round;paint-order:fill markers stroke"
         id="rect77"
         width="4.5516105"
         height="1.6149173"
         x="113.45921"
         y="33.812405"
         ry="0.3396543" /><rect
         style="fill:#ff0000;stroke-width:0.210805;stroke-linecap:square;stroke-linejoin:round;paint-order:fill markers stroke"
         id="rect78"
         width="4.5516105"
         height="1.6149173"
         x="118.92599"
         y="33.812405"
         ry="0.3396543" /></g><g
       id="g81"
       transform="matrix(1.575296,0,0,1,-112.65062,-7.4080422)"
       style="stroke-width:0.796744"><rect
         style="fill:#ff0000;stroke-width:0.210805;stroke-linecap:square;stroke-linejoin:round;paint-order:fill markers stroke"
         id="rect79"
         width="4.5516105"
         height="1.6149173"
         x="107.7693"
         y="33.812405"
         ry="0.3396543" /><rect
         style="fill:#ff0000;stroke-width:0.210805;stroke-linecap:square;stroke-linejoin:round;paint-order:fill markers stroke"
         id="rect80"
         width="4.5516105"
         height="1.6149173"
         x="113.45921"
         y="33.812405"
         ry="0.3396543" /><rect
         style="fill:#ff0000;stroke-width:0.210805;stroke-linecap:square;stroke-linejoin:round;paint-order:fill markers stroke"
         id="rect81"
         width="4.5516105"
         height="1.6149173"
         x="118.92599"
         y="33.812405"
         ry="0.3396543" /></g><g
       id="g84"
       transform="matrix(1.575296,0,0,1,-112.65062,-4.9981971)"
       style="stroke-width:0.796744"><rect
         style="fill:#ff0000;stroke-width:0.210805;stroke-linecap:square;stroke-linejoin:round;paint-order:fill markers stroke"
         id="rect82"
         width="4.5516105"
         height="1.6149173"
         x="107.7693"
         y="33.812405"
         ry="0.3396543" /><rect
         style="fill:#ff0000;stroke-width:0.210805;stroke-linecap:square;stroke-linejoin:round;paint-order:fill markers stroke"
         id="rect83"
         width="4.5516105"
         height="1.6149173"
         x="113.45921"
         y="33.812405"
         ry="0.3396543" /><rect
         style="fill:#ff0000;stroke-width:0.210805;stroke-linecap:square;stroke-linejoin:round;paint-order:fill markers stroke"
         id="rect84"
         width="4.5516105"
         height="1.6149173"
         x="118.92599"
         y="33.812405"
         ry="0.3396543" /></g><g
       id="g87"
       transform="matrix(1.575296,0,0,1,-112.65062,-2.5883521)"
       style="stroke-width:0.796744"><rect
         style="fill:#ff0000;stroke-width:0.210805;stroke-linecap:square;stroke-linejoin:round;paint-order:fill markers stroke"
         id="rect85"
         width="4.5516105"
         height="1.6149173"
         x="107.7693"
         y="33.812405"
         ry="0.3396543" /><rect
         style="fill:#ff0000;stroke-width:0.210805;stroke-linecap:square;stroke-linejoin:round;paint-order:fill markers stroke"
         id="rect86"
         width="4.5516105"
         height="1.6149173"
         x="113.45921"
         y="33.812405"
         ry="0.3396543" /><rect
         style="fill:#ff0000;stroke-width:0.210805;stroke-linecap:square;stroke-linejoin:round;paint-order:fill markers stroke"
         id="rect87"
         width="4.5516105"
         height="1.6149173"
         x="118.92599"
         y="33.812405"
         ry="0.3396543" /></g><g
       id="g93"
       transform="matrix(1.575296,0,0,1,-112.65062,-0.17850704)"
       style="stroke-width:0.796744"><rect
         style="fill:#ff0000;stroke-width:0.210805;stroke-linecap:square;stroke-linejoin:round;paint-order:fill markers stroke"
         id="rect91"
         width="4.5516105"
         height="1.6149173"
         x="107.7693"
         y="33.812405"
         ry="0.3396543" /><rect
         style="fill:#ff0000;stroke-width:0.210805;stroke-linecap:square;stroke-linejoin:round;paint-order:fill markers stroke"
         id="rect92"
         width="4.5516105"
         height="1.6149173"
         x="113.45921"
         y="33.812405"
         ry="0.3396543" /><rect
         style="fill:#ff0000;stroke-width:0.210805;stroke-linecap:square;stroke-linejoin:round;paint-order:fill markers stroke"
         id="rect93"
         width="4.5516105"
         height="1.6149173"
         x="118.92599"
         y="33.812405"
         ry="0.3396543" /></g><g
       id="g96"
       transform="matrix(1.575296,0,0,1,-112.65062,2.231338)"
       style="stroke-width:0.796744"><rect
         style="fill:#ff0000;stroke-width:0.210805;stroke-linecap:square;stroke-linejoin:round;paint-order:fill markers stroke"
         id="rect94"
         width="4.5516105"
         height="1.6149173"
         x="107.7693"
         y="33.812405"
         ry="0.3396543" /><rect
         style="fill:#ff0000;stroke-width:0.210805;stroke-linecap:square;stroke-linejoin:round;paint-order:fill markers stroke"
         id="rect95"
         width="4.5516105"
         height="1.6149173"
         x="113.45921"
         y="33.812405"
         ry="0.3396543" /><rect
         style="fill:#ff0000;stroke-width:0.210805;stroke-linecap:square;stroke-linejoin:round;paint-order:fill markers stroke"
         id="rect96"
         width="4.5516105"
         height="1.6149173"
         x="118.92599"
         y="33.812405"
         ry="0.3396543" /></g><g
       id="g99"
       transform="matrix(0.40745769,0,0,0.40745769,63.808483,-65.192101)"
       style="stroke-width:2.45424"><rect
         style="fill:#2568ef;fill-opacity:1;stroke:none;stroke-width:0.649351;stroke-linecap:square;stroke-linejoin:round;paint-order:fill markers stroke"
         id="rect97"
         width="26.21813"
         height="45.958874"
         x="77.41732"
         y="189.81796"
         ry="5.8464894" /><path
         id="path97"
         style="fill:#bde321;fill-opacity:1;stroke-width:0.649351;stroke-linecap:square;stroke-linejoin:round;paint-order:fill markers stroke"
         d="m 85.356706,209.20371 c 6.568426,12.56042 5.183132,17.25656 11.242133,3.16501 1.95631,-4.54984 5.592171,8.06719 7.036611,11.62264 v 5.93899 c 0,3.23895 -1.48752,5.84649 -3.33524,5.84649 H 80.752564 c -1.847725,0 -3.335243,-2.60754 -3.335243,-5.84649 v -8.1545 c 1.9861,-5.45446 5.818392,-16.628 7.939385,-12.57214 z"
         sodipodi:nodetypes="sscsssscs" /><circle
         style="fill:#fecd1a;fill-opacity:1;stroke:none;stroke-width:0.649351;stroke-linecap:square;stroke-linejoin:round;paint-order:fill markers stroke"
         id="circle97"
         cx="95.79496"
         cy="198.04857"
         r="4.4705887" /></g><g
       id="g98"
       transform="matrix(0.57166213,0,0,0.44135509,-18.451275,-70.96539)"
       style="stroke-width:1.99084"><rect
         style="fill:#2568ef;fill-opacity:1;stroke:none;stroke-width:0.526742;stroke-linecap:square;stroke-linejoin:round;paint-order:fill markers stroke"
         id="rect98"
         width="45.958878"
         height="22.523142"
         x="130.42899"
         y="185.83873"
         ry="2.8651989" /><path
         id="path98"
         style="fill:#bde321;fill-opacity:1;stroke-width:0.526742;stroke-linecap:square;stroke-linejoin:round;paint-order:fill markers stroke"
         d="m 144.34628,197.88749 c 11.51407,6.69121 9.08573,9.19295 19.70681,1.68607 3.4293,-2.4238 9.80276,4.29757 12.33478,6.19163 v 3.16384 c 0,1.72546 -2.60754,3.11455 -5.84649,3.11455 h -34.2659 c -3.23895,0 -5.84649,-1.38909 -5.84649,-3.11455 v -4.34409 c 3.48152,-2.90571 10.19931,-8.8581 13.91729,-6.69745 z"
         sodipodi:nodetypes="sscsssscs" /><circle
         style="fill:#fecd1a;fill-opacity:1;stroke:none;stroke-width:0.526742;stroke-linecap:square;stroke-linejoin:round;paint-order:fill markers stroke"
         id="circle98"
         cx="161.85995"
         cy="191.29742"
         r="4.4705887" /></g><g
       id="g100"
       transform="matrix(0.40745769,0,0,0.40745769,123.42365,-65.192101)"
       style="stroke-width:2.45424"><rect
         style="fill:#2568ef;fill-opacity:1;stroke:none;stroke-width:0.649351;stroke-linecap:square;stroke-linejoin:round;paint-order:fill markers stroke"
         id="rect99"
         width="26.21813"
         height="45.958874"
         x="77.41732"
         y="189.81796"
         ry="5.8464894" /><path
         id="path99"
         style="fill:#bde321;fill-opacity:1;stroke-width:0.649351;stroke-linecap:square;stroke-linejoin:round;paint-order:fill markers stroke"
         d="m 85.356706,209.20371 c 6.568426,12.56042 5.183132,17.25656 11.242133,3.16501 1.95631,-4.54984 5.592171,8.06719 7.036611,11.62264 v 5.93899 c 0,3.23895 -1.48752,5.84649 -3.33524,5.84649 H 80.752564 c -1.847725,0 -3.335243,-2.60754 -3.335243,-5.84649 v -8.1545 c 1.9861,-5.45446 5.818392,-16.628 7.939385,-12.57214 z"
         sodipodi:nodetypes="sscsssscs" /><circle
         style="fill:#fecd1a;fill-opacity:1;stroke:none;stroke-width:0.649351;stroke-linecap:square;stroke-linejoin:round;paint-order:fill markers stroke"
         id="circle99"
         cx="95.79496"
         cy="198.04857"
         r="4.4705887" /></g><g
       id="g131"
       transform="translate(29.722025)"><g
         id="g103"><rect
           style="fill:#ff0000;stroke-width:0.264583;stroke-linecap:square;stroke-linejoin:round;paint-order:fill markers stroke"
           id="rect101"
           width="4.5516105"
           height="1.6149173"
           x="107.7693"
           y="33.812405"
           ry="0.3396543" /><rect
           style="fill:#ff0000;stroke-width:0.264583;stroke-linecap:square;stroke-linejoin:round;paint-order:fill markers stroke"
           id="rect102"
           width="4.5516105"
           height="1.6149173"
           x="113.45921"
           y="33.812405"
           ry="0.3396543" /><rect
           style="fill:#ff0000;stroke-width:0.264583;stroke-linecap:square;stroke-linejoin:round;paint-order:fill markers stroke"
           id="rect103"
           width="4.5516105"
           height="1.6149173"
           x="118.92599"
           y="33.812405"
           ry="0.3396543" /></g><g
         id="g106"
         transform="translate(0,-20.974577)"><rect
           style="fill:#ff0000;stroke-width:0.264583;stroke-linecap:square;stroke-linejoin:round;paint-order:fill markers stroke"
           id="rect104"
           width="4.5516105"
           height="1.6149173"
           x="107.7693"
           y="33.812405"
           ry="0.3396543" /><rect
           style="fill:#ff0000;stroke-width:0.264583;stroke-linecap:square;stroke-linejoin:round;paint-order:fill markers stroke"
           id="rect105"
           width="4.5516105"
           height="1.6149173"
           x="113.45921"
           y="33.812405"
           ry="0.3396543" /><rect
           style="fill:#ff0000;stroke-width:0.264583;stroke-linecap:square;stroke-linejoin:round;paint-order:fill markers stroke"
           id="rect106"
           width="4.5516105"
           height="1.6149173"
           x="118.92599"
           y="33.812405"
           ry="0.3396543" /></g><g
         id="g109"
         transform="translate(0,-18.644068)"><rect
           style="fill:#ff0000;stroke-width:0.264583;stroke-linecap:square;stroke-linejoin:round;paint-order:fill markers stroke"
           id="rect107"
           width="4.5516105"
           height="1.6149173"
           x="107.7693"
           y="33.812405"
           ry="0.3396543" /><rect
           style="fill:#ff0000;stroke-width:0.264583;stroke-linecap:square;stroke-linejoin:round;paint-order:fill markers stroke"
           id="rect108"
           width="4.5516105"
           height="1.6149173"
           x="113.45921"
           y="33.812405"
           ry="0.3396543" /><rect
           style="fill:#ff0000;stroke-width:0.264583;stroke-linecap:square;stroke-linejoin:round;paint-order:fill markers stroke"
           id="rect109"
           width="4.5516105"
           height="1.6149173"
           x="118.92599"
           y="33.812405"
           ry="0.3396543" /></g><g
         id="g112"
         transform="translate(0,-16.31356)"><rect
           style="fill:#ff0000;stroke-width:0.264583;stroke-linecap:square;stroke-linejoin:round;paint-order:fill markers stroke"
           id="rect110"
           width="4.5516105"
           height="1.6149173"
           x="107.7693"
           y="33.812405"
           ry="0.3396543" /><rect
           style="fill:#ff0000;stroke-width:0.264583;stroke-linecap:square;stroke-linejoin:round;paint-order:fill markers stroke"
           id="rect111"
           width="4.5516105"
           height="1.6149173"
           x="113.45921"
           y="33.812405"
           ry="0.3396543" /><rect
           style="fill:#ff0000;stroke-width:0.264583;stroke-linecap:square;stroke-linejoin:round;paint-order:fill markers stroke"
           id="rect112"
           width="4.5516105"
           height="1.6149173"
           x="118.92599"
           y="33.812405"
           ry="0.3396543" /></g><g
         id="g115"
         transform="translate(0,-13.983051)"><rect
           style="fill:#ff0000;stroke-width:0.264583;stroke-linecap:square;stroke-linejoin:round;paint-order:fill markers stroke"
           id="rect113"
           width="4.5516105"
           height="1.6149173"
           x="107.7693"
           y="33.812405"
           ry="0.3396543" /><rect
           style="fill:#ff0000;stroke-width:0.264583;stroke-linecap:square;stroke-linejoin:round;paint-order:fill markers stroke"
           id="rect114"
           width="4.5516105"
           height="1.6149173"
           x="113.45921"
           y="33.812405"
           ry="0.3396543" /><rect
           style="fill:#ff0000;stroke-width:0.264583;stroke-linecap:square;stroke-linejoin:round;paint-order:fill markers stroke"
           id="rect115"
           width="4.5516105"
           height="1.6149173"
           x="118.92599"
           y="33.812405"
           ry="0.3396543" /></g><g
         id="g118"
         transform="translate(0,-11.652543)"><rect
           style="fill:#ff0000;stroke-width:0.264583;stroke-linecap:square;stroke-linejoin:round;paint-order:fill markers stroke"
           id="rect116"
           width="4.5516105"
           height="1.6149173"
           x="107.7693"
           y="33.812405"
           ry="0.3396543" /><rect
           style="fill:#ff0000;stroke-width:0.264583;stroke-linecap:square;stroke-linejoin:round;paint-order:fill markers stroke"
           id="rect117"
           width="4.5516105"
           height="1.6149173"
           x="113.45921"
           y="33.812405"
           ry="0.3396543" /><rect
           style="fill:#ff0000;stroke-width:0.264583;stroke-linecap:square;stroke-linejoin:round;paint-order:fill markers stroke"
           id="rect118"
           width="4.5516105"
           height="1.6149173"
           x="118.92599"
           y="33.812405"
           ry="0.3396543" /></g><g
         id="g121"
         transform="translate(0,-9.3220342)"><rect
           style="fill:#ff0000;stroke-width:0.264583;stroke-linecap:square;stroke-linejoin:round;paint-order:fill markers stroke"
           id="rect119"
           width="4.5516105"
           height="1.6149173"
           x="107.7693"
           y="33.812405"
           ry="0.3396543" /><rect
           style="fill:#ff0000;stroke-width:0.264583;stroke-linecap:square;stroke-linejoin:round;paint-order:fill markers stroke"
           id="rect120"
           width="4.5516105"
           height="1.6149173"
           x="113.45921"
           y="33.812405"
           ry="0.3396543" /><rect
           style="fill:#ff0000;stroke-width:0.264583;stroke-linecap:square;stroke-linejoin:round;paint-order:fill markers stroke"
           id="rect121"
           width="4.5516105"
           height="1.6149173"
           x="118.92599"
           y="33.812405"
           ry="0.3396543" /></g><g
         id="g124"
         transform="translate(0,-6.9915257)"><rect
           style="fill:#ff0000;stroke-width:0.264583;stroke-linecap:square;stroke-linejoin:round;paint-order:fill markers stroke"
           id="rect122"
           width="4.5516105"
           height="1.6149173"
           x="107.7693"
           y="33.812405"
           ry="0.3396543" /><rect
           style="fill:#ff0000;stroke-width:0.264583;stroke-linecap:square;stroke-linejoin:round;paint-order:fill markers stroke"
           id="rect123"
           width="4.5516105"
           height="1.6149173"
           x="113.45921"
           y="33.812405"
           ry="0.3396543" /><rect
           style="fill:#ff0000;stroke-width:0.264583;stroke-linecap:square;stroke-linejoin:round;paint-order:fill markers stroke"
           id="rect124"
           width="4.5516105"
           height="1.6149173"
           x="118.92599"
           y="33.812405"
           ry="0.3396543" /></g><g
         id="g127"
         transform="translate(0,-4.6610171)"><rect
           style="fill:#ff0000;stroke-width:0.264583;stroke-linecap:square;stroke-linejoin:round;paint-order:fill markers stroke"
           id="rect125"
           width="4.5516105"
           height="1.6149173"
           x="107.7693"
           y="33.812405"
           ry="0.3396543" /><rect
           style="fill:#ff0000;stroke-width:0.264583;stroke-linecap:square;stroke-linejoin:round;paint-order:fill markers stroke"
           id="rect126"
           width="4.5516105"
           height="1.6149173"
           x="113.45921"
           y="33.812405"
           ry="0.3396543" /><rect
           style="fill:#ff0000;stroke-width:0.264583;stroke-linecap:square;stroke-linejoin:round;paint-order:fill markers stroke"
           id="rect127"
           width="4.5516105"
           height="1.6149173"
           x="118.92599"
           y="33.812405"
           ry="0.3396543" /></g><g
         id="g130"
         transform="translate(0,-2.3305086)"><rect
           style="fill:#ff0000;stroke-width:0.264583;stroke-linecap:square;stroke-linejoin:round;paint-order:fill markers stroke"
           id="rect128"
           width="4.5516105"
           height="1.6149173"
           x="107.7693"
           y="33.812405"
           ry="0.3396543" /><rect
           style="fill:#ff0000;stroke-width:0.264583;stroke-linecap:square;stroke-linejoin:round;paint-order:fill markers stroke"
           id="rect129"
           width="4.5516105"
           height="1.6149173"
           x="113.45921"
           y="33.812405"
           ry="0.3396543" /><rect
           style="fill:#ff0000;stroke-width:0.264583;stroke-linecap:square;stroke-linejoin:round;paint-order:fill markers stroke"
           id="rect130"
           width="4.5516105"
           height="1.6149173"
           x="118.92599"
           y="33.812405"
           ry="0.3396543" /></g></g></g></svg>
